<svg width="783" height="896" viewBox="0 0 783 896" fill="none" xmlns="http://www.w3.org/2000/svg">
<path d="M578.829 398.842C686.619 398.842 774 311.461 774 203.671C774 95.8807 686.619 8.5 578.829 8.5C471.039 8.5 383.658 95.8807 383.658 203.671C383.658 311.461 471.039 398.842 578.829 398.842Z" stroke="white" stroke-width="17" stroke-miterlimit="10"/>
<path d="M580.584 347.895C659.226 347.895 722.979 284.142 722.979 205.5C722.979 126.858 659.226 63.1057 580.584 63.1057C501.942 63.1057 438.19 126.858 438.19 205.5C438.19 284.142 501.942 347.895 580.584 347.895Z" stroke="white" stroke-width="17" stroke-miterlimit="10"/>
<path d="M670.202 207.254C670.202 257.765 629.267 298.699 578.756 298.699C528.246 298.699 487.311 257.765 487.311 207.254C487.311 156.744 528.246 115.809 578.756 115.809C629.267 115.809 670.202 156.744 670.202 207.254Z" stroke="white" stroke-width="17" stroke-miterlimit="10"/>
<path d="M578.829 256.448C605.998 256.448 628.024 234.423 628.024 207.253C628.024 180.084 605.998 158.058 578.829 158.058C551.659 158.058 529.634 180.084 529.634 207.253C529.634 234.423 551.659 256.448 578.829 256.448Z" stroke="white" stroke-width="17" stroke-miterlimit="10"/>
<path d="M436.947 886.769C544.737 886.769 632.118 799.388 632.118 691.598C632.118 583.808 544.737 496.427 436.947 496.427C329.157 496.427 241.776 583.808 241.776 691.598C241.776 799.388 329.157 886.769 436.947 886.769Z" stroke="white" stroke-width="17" stroke-miterlimit="10"/>
<path d="M438.701 835.747C517.343 835.747 581.095 771.995 581.095 693.353C581.095 614.711 517.343 550.958 438.701 550.958C360.059 550.958 296.307 614.711 296.307 693.353C296.307 771.995 360.059 835.747 438.701 835.747Z" stroke="white" stroke-width="17" stroke-miterlimit="10"/>
<path d="M528.392 695.109C528.392 745.619 487.457 786.554 436.946 786.554C386.436 786.554 345.501 745.619 345.501 695.109C345.501 644.598 386.436 603.663 436.946 603.663C487.457 603.663 528.392 644.598 528.392 695.109Z" stroke="white" stroke-width="17" stroke-miterlimit="10"/>
<path d="M436.947 744.304C464.116 744.304 486.142 722.279 486.142 695.109C486.142 667.94 464.116 645.914 436.947 645.914C409.777 645.914 387.752 667.94 387.752 695.109C387.752 722.279 409.777 744.304 436.947 744.304Z" stroke="white" stroke-width="17" stroke-miterlimit="10"/>
<path d="M215.2 361.994C271.942 393.065 292.738 464.208 261.667 520.949C230.595 577.69 159.452 598.487 102.711 567.416C45.97 536.344 25.1732 465.201 56.2447 408.46C87.3161 351.719 158.459 330.922 215.2 361.994Z" stroke="white" stroke-width="17" stroke-miterlimit="10"/>
<path d="M235.329 505.277C257.996 463.883 242.816 411.952 201.422 389.285C160.029 366.618 108.097 381.798 85.43 423.192C62.7629 464.585 77.9436 516.517 119.337 539.184C160.731 561.851 212.662 546.67 235.329 505.277Z" stroke="white" stroke-width="17" stroke-miterlimit="10"/>
<path d="M187.118 417.538C213.726 432.108 223.471 465.447 208.901 492.054C194.33 518.662 161.027 528.343 134.419 513.773C107.812 499.203 98.1304 465.899 112.666 439.356C127.201 412.812 160.575 403.003 187.118 417.538Z" stroke="white" stroke-width="17" stroke-miterlimit="10"/>
<path d="M186.653 479.872C194.486 465.566 189.24 447.619 174.935 439.785C160.629 431.952 142.682 437.198 134.848 451.503C127.015 465.809 132.261 483.756 146.567 491.59C160.872 499.423 178.819 494.177 186.653 479.872Z" stroke="white" stroke-width="17" stroke-miterlimit="10"/>
<path d="M354.711 538.46C437.754 538.46 505.073 471.14 505.073 388.097C505.073 305.055 437.754 237.735 354.711 237.735C271.669 237.735 204.349 305.055 204.349 388.097C204.349 471.14 271.669 538.46 354.711 538.46Z" stroke="white" stroke-width="17" stroke-miterlimit="10"/>
<path d="M658.214 430.641C658.214 446.283 645.495 459.002 629.852 459.002C614.209 459.002 601.49 446.283 601.49 430.641C601.49 414.998 614.209 402.279 629.852 402.279C645.495 402.279 658.214 414.998 658.214 430.641Z" stroke="white" stroke-width="17" stroke-miterlimit="10"/>
</svg>
