<svg width="702" height="1163" viewBox="0 0 702 1163" fill="none" xmlns="http://www.w3.org/2000/svg">
<path d="M394.146 239.312C396.587 245.847 398.241 249.705 399.422 253.642C408.082 282.223 416.901 310.724 425.247 339.462C427.294 346.549 431.152 350.013 438.317 352.139C467.921 361.193 497.368 370.878 526.815 380.483C529.492 381.349 531.853 382.846 536.341 385.05C532.168 388.436 529.413 390.876 526.342 393.002C501.541 410.324 476.739 427.645 451.701 444.731C445.639 448.825 443.277 453.549 443.434 461.029C444.064 489.846 443.985 518.663 444.064 547.479C444.064 552.125 444.064 556.849 444.064 564.408C438.159 560.707 434.222 558.581 430.758 555.983C406.587 537.795 382.651 519.214 358.165 501.499C354.622 498.9 347.929 498.034 343.677 499.373C313.837 508.742 284.154 518.978 254.471 528.819C251.873 529.685 249.038 530 243.133 531.26C248.487 515.356 253.054 501.42 257.856 487.562C264.391 468.666 271.635 449.928 277.462 430.795C278.8 426.543 276.989 419.929 274.312 416.071C257.463 392.293 239.826 368.988 222.583 345.525C219.592 341.431 217.151 336.943 213.923 331.825C235.496 331.825 254.707 331.825 273.918 331.825C289.272 331.825 304.625 332.455 319.9 331.825C324.072 331.668 329.505 328.676 332.025 325.29C350.291 300.725 368.006 275.608 385.879 250.728C387.926 247.815 390.131 244.981 394.304 239.469M262.659 357.335C273.919 372.846 283.288 388.593 295.571 401.584C308.089 414.89 307.538 427.488 300.216 441.896C299.901 442.526 299.429 443.156 299.271 443.865C293.996 459.533 288.721 475.201 282.737 492.916C303.601 486.145 322.498 480.949 340.686 473.705C352.889 468.823 361.55 470.871 371.313 479.138C385.879 491.499 401.626 502.443 419.184 515.671C419.184 495.751 420.759 478.587 418.79 461.816C416.507 442.841 423.436 431.503 439.655 422.527C454.063 414.497 467.055 403.789 482.565 392.924C459.732 385.444 439.576 378.357 419.105 372.452C411.468 370.248 407.61 366.783 405.484 359.067C399.658 338.203 392.887 317.653 385.722 294.505C371.786 313.953 359.031 331.038 346.984 348.674C342.811 354.737 338.56 357.572 331.001 357.414C308.955 356.942 286.831 357.257 262.738 357.257" fill="white"/>
<path d="M701.842 585.273C682.001 606.846 664.207 627.081 645.39 646.292C636.335 655.504 631.768 663.534 635.784 677.392C642.791 701.485 647.122 726.365 652.476 751.009C653.027 753.686 653.263 756.442 653.893 761.244C648.932 759.591 645.547 758.804 642.477 757.387C617.99 746.127 593.425 734.947 569.096 723.294C562.797 720.302 558.23 720.145 552.089 724.003C530.122 737.703 507.761 750.773 485.401 763.843C481.543 766.126 477.291 767.701 470.441 770.929C472.252 754.552 473.669 741.01 475.244 727.467C477.133 711.169 478.865 694.792 481.149 678.573C482.251 670.778 479.338 665.739 473.512 660.779C452.726 642.985 432.333 624.718 411.784 606.688C410.209 605.271 408.083 604.405 406.272 603.303C406.587 602.2 406.981 601.177 407.296 600.075C411.862 598.736 416.429 597.004 421.074 596.138C446.506 591.099 472.016 586.611 497.29 580.942C501.935 579.918 507.289 575.194 509.336 570.785C520.752 545.905 531.224 520.631 542.09 495.515C543.428 492.365 545.239 489.374 547.758 484.413C550.829 488.822 552.798 491.184 554.294 493.861C567.757 517.718 581.457 541.338 594.29 565.51C598.148 572.754 603.109 575.037 610.746 575.588C637.674 577.635 664.522 580.233 691.449 582.674C694.205 582.91 696.961 584.013 702 585.273M655.31 602.121C633.894 600.232 615.391 598.342 596.889 597.161C588.464 596.61 583.11 593.539 579.095 585.587C570.591 568.896 560.829 552.913 550.436 534.646C545.633 545.984 540.593 554.645 538.231 564.014C531.303 591.729 515.083 606.216 485.715 606.295C475.716 606.295 465.796 610.389 453.592 613.144C467.528 625.427 478.472 636.844 491.227 645.662C504.533 654.795 506.659 665.818 504.14 680.305C501.541 695.58 500.439 711.169 498.313 729.357C515.241 719.358 530.594 711.248 544.845 701.563C554.845 694.713 562.954 694.32 573.662 700.225C588.622 708.492 604.684 714.791 622.714 722.98C618.226 703.532 614.998 686.762 610.353 670.385C607.125 658.968 608.699 650.701 617.833 642.276C630.509 630.545 641.61 617.002 655.31 602.279" fill="white"/>
<path d="M0.0788116 145.539C12.0465 141.13 21.6522 137.351 31.4153 134.044C56.2955 125.619 81.0969 117.194 106.135 109.321C113.929 106.88 118.181 102.707 120.307 94.6764C127.629 67.198 135.503 39.8768 143.612 12.7133C144.951 8.2254 148.021 2.24149 151.801 0.824263C158.572 -1.69525 164.32 1.76925 168.965 8.38297C185.578 31.9247 203.214 54.7576 219.985 78.1418C224.63 84.5981 229.748 86.4089 237.543 85.9365C270.69 84.1256 303.916 83.1024 337.063 81.8426C340.213 81.7639 343.284 82.3148 348.165 82.6298C345.961 86.5665 344.701 89.4797 342.89 91.9992C323.443 119.32 304.231 146.878 284.311 173.884C279.351 180.655 278.721 186.402 281.556 193.961C293.208 224.667 304.389 255.531 315.648 286.316C316.829 289.545 316.907 293.166 317.459 296.631C313.679 296.473 309.664 297.103 306.2 296.08C274.155 286.238 242.109 276.239 210.222 265.767C203.766 263.641 199.435 264.586 194.396 268.68C167.784 289.781 140.935 310.567 114.165 331.353C111.488 333.479 108.575 335.29 104.166 338.203C103.615 333.006 103.064 329.936 103.064 326.865C102.513 292.93 101.883 258.996 101.883 225.061C101.883 217.503 99.2059 213.093 93.1433 209.078C64.8776 190.339 36.848 171.206 8.73968 152.153C6.45637 150.657 4.40915 148.924 0 145.539M120.543 298.836C139.046 286.081 157.627 274.506 174.712 261.121C189.593 249.469 204.159 243.327 222.347 252.539C226.205 254.508 230.693 255.059 234.944 256.24C252.739 261.121 270.533 266.003 290.216 271.357C288.642 265.924 287.776 262.539 286.752 259.232C279.587 236.635 272.658 213.96 265.021 191.599C262.502 184.119 263.447 178.45 268.013 172.309C275.178 162.624 281.713 152.467 288.484 142.547C297.46 129.477 306.357 116.407 317.537 100.109C296.673 100.109 278.879 98.062 261.872 100.582C229.906 105.227 207.86 93.6526 190.932 66.8828C182.822 54.0491 170.933 43.4986 159.989 30.9798C151.092 58.3008 143.219 84.126 134.164 109.479C132.353 114.439 127.157 119.635 122.196 121.761C107.473 128.06 92.1197 132.863 77.0814 138.374C66.2947 142.311 55.5867 146.405 42.7529 151.287C66.767 167.9 88.734 183.41 111.173 198.291C118.417 203.094 121.094 208.369 120.858 217.109C120.228 243.721 120.622 270.255 120.622 298.836" fill="white"/>
<path d="M535.948 840.53C514.375 856.435 495.714 870.922 476.188 884.149C466.425 890.763 461.937 897.849 462.882 909.974C464.457 930.288 464.536 950.759 465.165 971.151C465.244 974.93 464.772 978.71 464.457 984.93C453.906 977.529 445.403 971.703 436.978 965.64C423.672 956.034 410.681 945.956 396.981 936.902C393.517 934.618 387.375 933.91 383.36 935.248C361.55 942.413 340.056 950.444 318.404 958.081C315.097 959.262 311.79 960.286 304.94 962.49C308.011 952.255 310.058 944.775 312.42 937.453C317.931 920.446 323.285 903.439 329.348 886.669C332.261 878.48 330.844 872.418 325.411 865.726C311.081 848.246 297.46 830.216 283.603 812.343C282.107 810.454 281.162 808.092 278.958 804.234C283.682 803.761 286.989 803.21 290.374 803.21C311.947 803.131 333.442 802.816 355.015 803.367C363.912 803.604 369.896 801.321 374.857 793.447C386.824 774.708 399.815 756.599 412.413 738.254C414.303 735.498 416.586 732.9 420.286 728.097C427.294 748.804 434.931 766.598 439.025 785.18C443.749 806.832 454.064 819.508 476.818 822.815C491.148 824.862 504.927 830.216 518.941 834.311C523.665 835.728 528.311 837.696 536.027 840.53M406.193 785.731C399.186 795.336 391.706 804.706 385.249 814.705C381.234 821.004 376.589 823.445 369.109 823.209C352.968 822.657 336.749 823.051 317.931 823.051C327.852 835.964 335.332 847.144 344.465 856.907C353.598 866.749 355.33 875.961 349.976 888.401C344.622 900.763 341.788 914.226 337.143 929.501C350.213 924.776 360.999 922.099 370.605 917.139C387.454 908.4 401.233 911.156 414.933 923.753C423.042 931.233 432.884 936.666 442.647 943.516C442.647 928.95 443.828 916.116 442.332 903.676C440.521 888.165 445.954 878.402 459.418 870.922C470.047 865.017 479.259 856.75 491.069 848.089C473.905 842.971 459.418 838.011 444.616 834.625C435.561 832.578 431.152 827.933 428.711 819.272C424.538 804.47 419.342 789.904 413.673 772.582C410.051 778.96 408.004 782.581 405.878 786.203L406.272 785.888L406.193 785.731Z" fill="white"/>
<path d="M109.364 1036.11C128.26 1030.52 144.322 1024.22 160.935 1021.31C179.988 1017.92 189.437 1008.08 193.61 989.496C197.231 973.277 203.924 957.766 209.987 939.579C213.451 943.279 215.97 945.483 217.781 948.16C228.568 963.75 239.591 979.103 249.669 995.165C254.393 1002.72 260.062 1005.16 268.565 1005.01C289.666 1004.61 310.767 1004.85 334.387 1004.85C331.71 1009.49 330.372 1012.57 328.404 1015.16C316.436 1030.83 303.996 1046.11 292.579 1062.09C289.981 1065.71 288.957 1072.25 290.217 1076.66C295.65 1096.26 302.185 1115.63 308.169 1135.08C308.799 1137.2 308.326 1139.72 308.405 1142.01C306.043 1141.77 303.602 1142.01 301.397 1141.3C281.792 1134.53 262.345 1127.28 242.504 1120.98C238.489 1119.72 232.347 1120.67 228.804 1123.03C213.057 1133.58 197.94 1145 182.508 1156.02C179.437 1158.22 175.973 1159.96 171.328 1162.71C170.777 1158.46 170.225 1156.1 170.304 1153.82C170.855 1133.74 171.17 1113.74 172.273 1093.66C172.666 1086.03 169.517 1081.62 163.69 1077.44C147.944 1066.18 132.59 1054.53 117.079 1042.96C115.19 1041.54 113.536 1039.73 109.521 1035.95M158.022 1044.93C169.753 1053.35 178.571 1060.28 188.019 1066.34C194.318 1070.36 197.153 1074.77 196.287 1082.4C194.948 1093.74 194.712 1105.16 193.767 1119.88C205.577 1111.06 215.025 1104.53 223.844 1097.28C229.198 1092.87 234.158 1091.69 240.85 1094.29C251.086 1098.23 261.715 1101.14 274.076 1105.16C270.455 1094.45 268.171 1085.95 264.707 1078.07C260.298 1068.15 261.4 1060.36 269.353 1052.56C276.36 1045.63 282.108 1037.37 289.272 1028.63C276.045 1028.63 265.101 1029.49 254.393 1028.23C249.118 1027.6 242.976 1024.3 239.354 1020.36C231.875 1012.17 225.891 1002.72 217.86 991.937C214.081 1003.27 210.538 1012.33 208.018 1021.7C205.735 1030.12 200.774 1034.37 192.35 1036.11C181.721 1038.31 171.328 1041.46 158.022 1045" fill="white"/>
<path d="M156.289 832.421C170.304 831.633 180.697 830.767 191.169 830.61C198.019 830.531 202.585 828.169 205.971 821.87C210.852 812.658 216.836 804.076 224.159 792.187C228.961 804.076 232.898 812.816 236.048 821.87C238.725 829.665 242.819 834.625 251.637 836.043C261.4 837.696 270.927 840.924 284.076 844.467C273.368 853.286 265.652 860.214 257.306 866.277C251.952 870.135 249.905 874.544 250.456 881C251.48 891.944 251.952 902.967 252.897 916.746C240.772 909.345 231.009 903.991 221.954 897.613C216.679 893.834 212.506 893.913 206.995 896.511C197.546 900.999 187.704 904.699 174.713 910.053C177.705 897.692 179.28 887.929 182.429 878.638C185.421 869.898 183.532 863.679 177.233 857.301C170.462 850.451 164.714 842.499 156.368 832.421M239.591 894.149C233.764 873.835 240.929 860.293 258.487 849.821C237.307 848.955 225.97 838.326 222.033 817.855C214.396 836.987 201.798 845.963 180.54 842.892C196.916 856.356 199.83 871.63 191.563 890.448C208.963 878.48 224.08 880.055 239.591 894.07" fill="white"/>
<path d="M364.857 601.177C374.306 627.238 392.336 636.686 419.263 628.97C419.421 630.309 419.657 631.647 419.814 632.986C416.114 637.867 412.807 643.142 408.713 647.709C400.918 656.134 397.454 664.794 403.359 676.053C406.193 681.486 406.981 688.021 409.579 697.233C399.186 693.532 391.47 691.643 384.62 688.021C377.219 684.084 371.786 685.738 365.802 690.62C359.819 695.58 353.205 699.753 343.993 706.288C343.993 694.714 343.363 686.525 344.229 678.415C344.938 671.723 343.048 667.55 337.536 663.85C330.372 659.125 323.758 653.614 314.703 646.764C324.309 643.615 331.553 640.623 339.111 638.97C347.536 637.08 352.339 632.828 354.15 624.167C355.724 616.924 358.795 610.074 361.157 602.988C362.338 602.437 363.598 601.806 364.779 601.177M367.062 627.71C363.283 634.639 361.393 641.095 357.22 644.875C353.441 648.339 347.063 648.968 341.788 650.858C356.039 657.393 357.771 668.416 355.409 684.636C367.22 672.589 377.376 668.653 390.446 676.841C382.888 663.85 385.801 653.614 395.721 643.772C381.313 646.528 373.203 639.599 367.062 627.71Z" fill="white"/>
<path d="M441.23 158.53C434.695 163.963 430.207 168.608 424.853 171.915C416.271 177.269 413.673 184.198 415.484 193.961C416.586 199.787 415.484 205.928 415.405 211.912C410.051 209.471 403.91 208.054 399.5 204.511C391.076 197.582 383.202 196.638 373.754 201.992C368.873 204.826 363.125 206.243 354.464 209.629C356.669 200.102 357.535 192.701 360.133 186.087C363.283 178.056 361.393 172.387 355.566 166.64C350.764 161.915 346.906 156.168 340.843 148.688C348.402 147.743 353.598 146.011 358.558 146.562C371.156 147.98 379.344 143.177 384.462 131.681C386.588 126.879 390.052 122.785 394.304 116.25C399.658 128.217 401.863 140.421 409.106 146.956C416.35 153.491 428.79 154.357 441.23 158.451M391.942 140.5C386.824 155.538 376.903 159.081 363.912 159.554C376.982 167.348 375.644 177.741 371.313 189.945C382.651 183.017 392.729 183.332 403.122 191.914C400.288 179.237 404.382 170.261 415.405 163.175C400.681 163.411 395.642 154.514 391.863 140.578" fill="white"/>
<path d="M279.509 363.792C294.232 363.792 309.113 362.61 323.679 364.106C336.985 365.445 346.748 363.555 353.598 350.643C359.739 339.147 367.77 328.597 375.014 317.653C376.904 314.818 379.108 312.063 382.73 307.103C388.793 327.731 394.619 345.525 399.186 363.713C401.39 372.374 405.957 376.232 414.066 378.594C429.656 383.082 445.009 388.514 463.669 394.577C450.127 404.812 439.734 414.654 427.687 421.347C412.019 430.008 408.87 441.818 411.075 458.273C412.807 471.343 411.389 484.885 411.389 500.396C407.059 497.247 403.673 494.964 400.524 492.523C394.461 487.799 387.454 483.862 382.809 478.036C367.455 458.982 349.661 460.163 329.663 469.06C319.506 473.548 308.562 476.303 295.964 480.555C296.909 475.673 297.066 472.997 297.933 470.477C300.924 461.895 302.972 452.604 307.538 444.888C318.64 426.228 314.231 411.268 300.059 396.466C291.634 387.648 285.256 376.94 277.934 367.098C278.406 365.996 278.879 364.815 279.43 363.713" fill="white"/>
<path d="M405.721 786.124C410.838 783.998 413.909 784.393 415.563 790.927C418.712 803.21 422.491 815.414 427.058 827.303C428.475 831.003 432.569 834.783 436.349 836.2C448.789 840.845 461.623 844.467 475.559 848.876C473.59 851.868 472.724 854.23 470.992 855.726C467.764 858.639 464.457 861.867 460.52 863.6C436.585 874.544 433.829 893.991 438.159 916.824C439.104 921.942 438.711 927.374 439.183 936.272C429.577 929.107 421.625 924.698 415.641 918.399C402.965 904.857 389.659 902.18 373.203 911.313C365.723 915.486 356.984 917.297 345.961 921.233C347.693 914.147 348.402 909.423 349.977 905.014C357.903 882.968 354.622 862.786 340.135 844.467C336.749 840.137 334.308 835.019 331.474 830.216C336.985 829.35 342.812 826.909 348.008 827.854C373.361 832.342 390.682 823.524 399.816 799.195C401.548 794.628 403.91 790.219 406.036 785.731L405.642 786.046" fill="white"/>
</svg>
