<svg width="16" height="29" viewBox="0 0 16 29" fill="none" xmlns="http://www.w3.org/2000/svg">
<path d="M10.7356 22.4049C10.7356 23.9085 11.2596 26.6759 10.7462 28.0944C10.2538 29.4561 7.93401 28.8861 6.58586 28.8578C4.40828 28.8113 5.05076 27.398 5.05866 25.5643C5.06392 23.5784 5.06656 21.5925 5.06656 19.6066C5.06656 18.7993 5.53788 16.4859 4.72162 15.9417C3.71314 15.266 1.44341 16.5736 0.461259 15.8514C-0.107492 15.4336 -0.0600959 12.2871 0.126854 11.5959C0.569216 9.97109 2.76786 11.1265 4.11864 10.8067C5.59844 10.456 5.06656 8.79245 5.09815 7.50032C5.13502 5.94255 5.15082 4.35125 5.93548 2.95081C7.67596 -0.156996 10.6066 -0.0641486 13.7874 0.0338568C15.9992 0.100913 16.0071 0.0854386 15.9992 2.20287C15.9939 4.18361 15.9465 4.2842 13.9691 4.39768C12.7184 4.46989 11.4492 4.59369 10.9015 5.83939C10.5566 6.62601 10.238 9.93756 10.7541 10.5798C11.5967 11.6243 14.4457 10.0846 15.4647 10.8686C16.0492 11.3174 15.3383 15.266 14.7458 15.725C13.7347 16.5091 11.6756 15.217 10.8225 16.1274C10.4381 16.5375 10.733 18.1571 10.7356 18.6987C10.7383 19.9341 10.7304 21.1695 10.7304 22.4049H10.7356Z" fill="white"/>
</svg>
