<svg width="29" height="29" viewBox="0 0 29 29" fill="none" xmlns="http://www.w3.org/2000/svg">
<g clip-path="url(#clip0_1_734)">
<path d="M28.7961 14.5533C28.7961 18.2625 29.8941 23.8197 26.9874 26.7951C24.2342 29.6103 19.1717 28.7364 15.6243 28.7464C11.8266 28.7564 6.27025 29.8171 2.97646 27.5356C-0.54425 25.0939 0.320077 20.017 0.303392 16.3512C0.286706 12.5719 -0.911338 6.06743 1.55149 2.83853C4.23124 -0.677225 9.57071 0.253416 13.4352 0.243409C17.343 0.236738 23.2131 -0.897377 26.4368 1.7778C30.0009 4.73984 28.7995 10.5138 28.7961 14.5499V14.5533ZM14.3495 5.35027C9.55069 5.2969 5.40592 9.44976 5.33918 14.3832C5.22572 22.8357 15.8713 26.6483 21.4844 20.5808C27.0274 14.5866 22.0851 5.43699 14.3495 5.35027ZM23.707 7.26158C24.6414 7.27493 25.6559 6.28758 25.6892 5.33359C25.7426 3.74249 23.49 3.07203 22.4555 4.0427C21.3142 5.11343 22.0918 7.23823 23.707 7.26158Z" fill="white"/>
<path d="M20.7772 14.6535C20.7238 20.0739 13.886 22.6957 10.0983 18.883C6.2038 14.9603 9.2473 8.2724 14.6936 8.31576C18.0774 8.34245 20.8106 11.1911 20.7772 14.6535Z" fill="white"/>
</g>
<defs>
<clipPath id="clip0_1_734">
<rect width="29" height="29" fill="white"/>
</clipPath>
</defs>
</svg>
