<?xml version="1.0" encoding="UTF-8"?>
<svg id="Capa_2" data-name="Capa 2" xmlns="http://www.w3.org/2000/svg" viewBox="0 0 210.72 55.64">
  <g id="Capa_1-2" data-name="Capa 1">
    <path d="m52.24,16.39C50.27,7.45,41.71-1.33,29.99.17c-5.44.69-9.78,3.42-13.14,7.7-1.93,2.46-3.26,5.2-4.01,8.26C5.89,19.76.67,25.43.04,32.72c-.38,4.47,1.81,8.35,3.39,9.85,7.06,6.7,13.87,8.98,20.75,9.63,1.25,1.01,2.64,1.84,4.19,2.45,1.86.74,3.78,1.24,5.81.86,2.53-.47,4.89-1.35,6.92-3.02.3-.24.59-.5.87-.75,5.05-.61,9.69-1.9,15-5.09,2.86-1.72,7.65-7.44,7.58-13.19-.09-7.38-5.16-13.26-12.31-17.07Zm-20.73-7.85c3.85-.3,7.43.82,10.81,2.56,1.52.78,2.99,1.65,4.21,2.84-4.69-1.6-9.85-2.44-14.88-2.4-4.21.04-8.59.74-12.69,2.06,3.64-2.98,7.83-4.7,12.55-5.06ZM13.49,41.03c-.65-1.37-1.11-2.92-1.24-4.63-.67-9.18,8.77-18.36,18.87-18.87,7.07-.36,14.8,3.54,18.11,10.38,1.24,2.55,1.83,5.55,1.55,8.95-.16.87-.54,2.63-1.42,4.67,0,0,0,0-.01,0-.73.62-1.45,1.1-1.99,1.27.24-.51.49-1.03.7-1.56.08-.2.16-.39.23-.6.27-.77.43-1.59.65-2.44-.64.52-1.21.99-1.78,1.46-.06-.04-.12-.09-.18-.13.89-2.36,1.29-4.81,1.36-7.33-.03.11-.07.22-.11.32,0-.02,0-.04,0-.05-.09.29-.2.58-.31.87-.43,1.02-.99,1.98-1.84,2.86-.03-.27-.05-.41-.06-.56-.24-2.59-.66-5.14-1.45-7.62-.89-2.78-2.2-5.36-3.85-7.75-.18-.26-.67-.3-1.02-.45-.02.09-.05.19-.07.28-.01,0-.02,0-.03-.01-.06.26-.16.51-.17.77-.01.35.02.7.08,1.04.63,3.51,1.27,7.02,1.92,10.53.1.53.22,1.06.33,1.58-.01,0-.02,0-.03.01-2.49-3.91-4.12-8.26-6.09-12.53.02.2.03.4.04.61-.05-.11-.1-.22-.15-.34.38,4.25.19,8.4-.07,12.54-.07-.25-.13-.5-.19-.75-1.22-4.88-3.45-9.35-5.65-13.82-.08-.16-.36-.28-.56-.29-.79-.06-.96.62-1.23,1.14-.39.75-.72,1.52-1.01,2.3-.91,2.33-1.47,4.77-2.04,7.21-.17.74-.32,1.48-.47,2.23-.05,0-.1-.01-.15-.02-.32-3.9.12-7.8.19-11.72-.65.12-1.06.39-1.24.99-.05.09-.09.19-.12.31-.02.06-.04.13-.06.19-.1.23-.22.45-.31.68-.11.27-.22.55-.33.82-1.64,4.16-2.47,8.46-1.99,12.97.01.12.01.24,0,.36-.02,0-.03,0-.05,0-.62-1.11-1.24-2.21-1.95-3.48.01.18.02.35.04.53-.05-.09-.1-.17-.14-.26.13,1.82.24,3.48.36,5.13-.41-.67-.81-1.34-1.22-2-.03.01-.06.03-.09.04,0,.1.01.19.02.29-.01-.02-.02-.04-.04-.06-.03.01-.06.03-.09.04.1,1.34.2,2.69.29,4.03,0,0-.02,0-.03,0-.14-.27-.24-.55-.41-.8-.46-.66-.87-1.37-1.43-1.93-.78-.77-1.61-.63-1.87.26-.09.17-.15.38-.18.64-.05.55-.05,1.1-.04,1.66Z"/>
    <g>
      <path d="m81.87,40.57c-1.04-.25-1.67-1.04-1.94-2.46-.54-2.71-.59-11.36-.13-17.87.25-3.43.47-4.06,1.67-4.67.97-.52,1.99-.63,5.99-.63,5.62,0,6.37.25,6.71,2.23.29,1.58.09,2.98-.5,3.64-.48.54-.9.61-3.84.63-1.27,0-2.37.05-2.46.11-.25.16-.38.95-.38,2.57v1.54h2.06c2.46-.02,2.82-.25,2.75,2.23-.04,1.45-.04,1.51-.36,1.83-.32.34-.34.34-2.12.36-1,.02-1.92.04-2.06.04h-.27l.07,4.15c.02,2.44.88,5.6-2.17,6.32-.74.16-2.37.16-3.03,0Z"/>
      <path d="m106.63,40.59c-.95-.13-1.69-.52-2.12-1.13-.5-.74-.65-1.22-1.18-3.88-.54-2.75-.65-3.07-.93-3.23s-1.72-.16-1.99,0c-.23.13-.29.32-1.13,4.23-.25,1.13-.56,2.21-.74,2.58-.86,1.74-6.12,1.54-7.03-.16-.52-1-.29-2.75,1.17-8.25,2.08-7.9,3.57-12.2,4.88-14.09.54-.79,1.6-1.45,2.58-1.63.97-.16,3.39-.07,4.09.14.27.09.79.47,1.22.86.95.9,1.58,2.14,2.39,4.77,1.42,4.63,3.66,14.5,3.86,17.03.09,1.18-.05,1.58-.72,2.06-.97.7-2.42.93-4.34.68Zm-3.95-13.14c.2-.07.22-.18.16-1.2-.09-1.76-.56-2.85-1.2-2.85-.34,0-.57.34-.88,1.27-.27.81-.48,2.24-.36,2.57.04.13.2.27.36.31.32.11,1.58.04,1.92-.09Z"/>
      <path d="m126.41,40.61c-1.44-.27-1.79-.88-3.79-6.44-1.49-4.18-2.05-5.51-2.24-5.44-.16.05-.16,2.76-.02,6.73.07,1.69.47,3.71-1.2,4.75-.54.32-.59.34-2.39.34-1.67,0-1.87-.02-2.39-.29-1.24-.63-1.63-2.15-1.87-7.34-.14-3.45.14-12.42.48-14.66.29-1.85.79-2.71,1.79-3.01.32-.11,1.17-.22,1.85-.27,1.2-.07,1.29-.05,1.94.25.74.36,1.33,1.06,1.9,2.23.27.54,2.66,6.8,2.66,6.96,0,.04.2.48.43,1,.32.7.48.97.65.97.29,0,.29-.18.05-3.14-.22-2.57-.25-5.65-.07-6.24.2-.68.45-.95,1.22-1.33,1.29-.65,3.57-.77,4.56-.25,1.24.65,1.47,1.44,1.65,5.72.2,4.02.2,15.68.02,16.87-.2,1.31-.48,1.92-1.15,2.3-.47.29-.65.32-2.01.36-.83.02-1.76,0-2.08-.07Z"/>
      <path d="m136.5,40.57c-1.04-.25-1.67-1-1.96-2.37-.29-1.31-.41-4.18-.41-8.72,0-7.03.29-10.39,1-11.88.75-1.62,2.15-2.28,5.38-2.57,4.06-.36,6.71.36,8.72,2.33.68.66.95,1.06,1.33,1.85.84,1.78,1.04,3.71.61,5.71-.27,1.24-.61,1.96-1.42,2.96-1.63,2.05-3.32,2.78-6.41,2.78h-1.74l.09,3.89c.02,2.37.81,5.31-2.19,6.01-.74.16-2.37.16-3.01,0Zm8.24-15.97c.47-.22.88-.9.88-1.45.02-.54-.36-1.11-.86-1.33-.63-.27-1.92-.41-2.35-.25l-.32.13v1.49c0,1.44.02,1.49.27,1.61.41.16,1.87.05,2.39-.2Z"/>
      <path d="m154.63,40.54c-1.51-.43-1.92-1.83-2.19-7.32-.2-4.2.13-13.23.56-15.43.4-2.14,1.04-2.67,3.32-2.8,1.58-.09,2.12.04,2.82.7.99.93,1.08,1.7,1.24,11.11.18,11.45.04,12.88-1.35,13.64-.52.29-3.52.36-4.4.11Z"/>
      <path d="m166.99,40.59c-1.33-.09-2.15-.29-2.67-.61-.45-.27-.92-1.18-1.09-2.08-.54-2.69-.59-11.25-.13-17.71.29-4.04.63-4.58,3.03-4.97,1.4-.23,6.66-.34,8.45-.18,2.06.2,2.62.59,2.89,2.1.29,1.56.09,2.96-.5,3.61-.48.56-.9.61-3.84.63-1.27,0-2.37.05-2.46.11-.25.16-.38.93-.38,2.55v1.53h2.06c2.46-.02,2.82-.25,2.75,2.21-.04,1.44-.04,1.51-.36,1.81-.32.34-.34.34-2.12.36-1,.02-1.92.04-2.06.04-.27,0-.27.02-.27,1.83,0,.99.04,1.88.09,1.97.09.11.66.14,2.69.11,2.48-.02,2.6-.02,3,.23.59.36.93,1.04,1.06,2.08.2,1.58-.18,3.07-.92,3.71-.43.36-1.08.5-2.93.68-1.4.13-4.5.13-6.3,0Z"/>
      <path d="m186.34,40.64c-3.95-.52-7.21-4.18-8.34-9.33-.29-1.4-.29-5.28.02-6.67,1.06-4.85,3.79-8.27,7.45-9.42,1.08-.32,2.85-.36,3.97-.05,2.76.74,5.29,3.21,5.29,5.19,0,1-.79,2.44-1.61,2.98-1.44.9-2.08.79-3.55-.63-1.11-1.06-1.56-1.26-2.31-1-1.58.52-2.75,4.52-2.31,7.95.16,1.4.38,2.08.92,2.96,1.02,1.69,2.17,1.63,3.16-.13.84-1.49,1.58-1.83,3.23-1.49,1.27.27,2.26,1.33,2.46,2.58.3,2.08-1.79,5.31-4.22,6.41-1.22.56-2.87.83-4.13.66Z"/>
      <path d="m200.11,40.59c-1.33-.09-2.15-.29-2.67-.61-.45-.27-.92-1.18-1.09-2.08-.54-2.69-.59-11.25-.13-17.71.29-4.04.63-4.58,3.03-4.97,1.4-.23,6.66-.34,8.45-.18,2.06.2,2.62.59,2.89,2.1.29,1.56.09,2.96-.5,3.61-.48.56-.9.61-3.84.63-1.27,0-2.37.05-2.46.11-.25.16-.38.93-.38,2.55v1.53h2.06c2.46-.02,2.82-.25,2.75,2.21-.04,1.44-.04,1.51-.36,1.81-.32.34-.34.34-2.12.36-1,.02-1.92.04-2.06.04-.27,0-.27.02-.27,1.83,0,.99.04,1.88.09,1.97.09.11.66.14,2.69.11,2.48-.02,2.6-.02,3,.23.59.36.93,1.04,1.06,2.08.2,1.58-.18,3.07-.92,3.71-.43.36-1.08.5-2.93.68-1.4.13-4.5.13-6.3,0Z"/>
    </g>
  </g>
</svg>