<svg width="27" height="29" viewBox="0 0 27 29" fill="none" xmlns="http://www.w3.org/2000/svg">
<path d="M0.0342191 0.0468074C1.88498 0.0468074 3.73289 0.0321801 5.58365 0.0497329C7.61121 0.0672857 7.90494 0.184304 9.07414 1.93081C11.019 4.84457 12.904 7.80514 14.903 10.6779C16.962 8.9841 18.6274 6.40969 20.3413 4.34431C21.1597 3.35843 21.9439 2.33452 22.7909 1.37497C23.8774 0.143348 24.2994 0.152124 25.8194 0C24.308 2.5393 22.0779 4.74803 20.1901 7.00356C18.9895 8.43704 15.7899 10.9383 16.3745 12.8837C16.7452 14.1154 18.154 15.5459 18.8698 16.6137C19.7538 17.936 20.6407 19.2583 21.5247 20.5806C23.3213 23.2662 25.0751 25.9898 27 28.5818C24.8755 28.9475 20.384 29.4887 18.6331 28.1079C17.3698 27.1132 16.3175 24.7231 15.3935 23.3657C14.4125 21.9205 13.4943 20.3963 12.442 19.0067C11.1816 17.3421 10.8707 18.132 9.67585 19.5655C8.59791 20.8586 7.51711 22.1516 6.43346 23.4417C4.89068 25.2789 2.7519 29.6232 0 28.5145C1.90494 26.1946 3.8384 23.901 5.77186 21.6075C7.03517 20.1096 10.8051 17.114 9.90684 15.0837C8.83745 12.6643 6.69582 10.3181 5.23004 8.11816C3.5076 5.53205 1.79087 2.94009 0.0712928 0.351056C0.0427757 0.310099 0.0570297 0.239888 0.0399194 0.0468074H0.0342191ZM23.6435 27.0488C23.4068 26.572 23.27 26.1946 23.0532 25.8728C17.7633 18.0501 12.4677 10.2333 7.1635 2.41936C7.0038 2.1824 6.78707 1.82256 6.58175 1.81086C5.45817 1.75235 4.33175 1.78161 2.99144 1.78161C3.26235 2.24091 3.37642 2.46324 3.51616 2.67095C8.87452 10.5873 14.2329 18.5036 19.6055 26.4111C19.788 26.6802 20.116 26.9991 20.3926 27.0167C21.4135 27.0898 22.4401 27.0459 23.6407 27.0459L23.6435 27.0488Z" fill="white"/>
</svg>
